<svg xmlns="http://www.w3.org/2000/svg" width="376.756" height="140.581" viewBox="0 0 376.756 140.581">
  <g id="Ilustracion_Mod_Light" transform="translate(-1327.745 -197.73)">
    <g id="Ilustraci칩n_Playground" data-name="Ilustraci칩n Playground" transform="translate(1327.745 197.73)">
      <g id="Group_100" data-name="Group 100" transform="translate(232.603 110.826)">
        <path id="Path_1465" data-name="Path 1465" d="M666.409,628.1a2.752,2.752,0,1,0,2.752,2.752h0A2.752,2.752,0,0,0,666.409,628.1Zm0,4.445a1.693,1.693,0,1,1,1.693-1.693h0A1.693,1.693,0,0,1,666.409,632.545Z" transform="translate(-655.825 -625.983)" fill="#e4e4e4"/>
        <path id="Path_1467" data-name="Path 1467" d="M630.954,619.261h10.583v10.475a1.379,1.379,0,0,1-1.379,1.379h-7.826a1.379,1.379,0,0,1-1.379-1.379V619.261Z" transform="translate(-630.954 -619.261)" fill="#e4e4e4"/>
      </g>
      <path id="Path_944" data-name="Path 944" d="M489.519,668.237H113.777c-.289-.013-.507-.117-.507-.239s.218-.226.507-.239H489.519c.288.013.507.117.507.239S489.808,668.224,489.519,668.237Z" transform="translate(-113.27 -545.318)" fill="#cacaca"/>
      <path id="Trazado_6773" data-name="Trazado 6773" d="M86.286,494.381l-.984,4.865,18.295,6.11,1.452-7.18Z" transform="translate(43.753 -375.986)" fill="#ffb6b6"/>
      <path id="Trazado_6774" data-name="Trazado 6774" d="M180.266,642.98l-1.938,9.58h0a6.229,6.229,0,0,1-7.34,4.87l-.2-.04,3.173-15.685Z" transform="translate(-48.388 -525.505)" fill="#2f2e41"/>
      <circle id="Ellipse_276" data-name="Ellipse 276" cx="12.422" cy="12.422" r="12.422" transform="translate(138.349 26.545)" fill="#feb8b8"/>
      <path id="Path_1461" data-name="Path 1461" d="M256.15,253.1a14.346,14.346,0,0,0-8.162-6.239l-1.525,1.113v-1.445a13.206,13.206,0,0,0-2.467-.144l-1.316,1.19v-1.092a14.21,14.21,0,0,0-9.8,5.831c-2.857,4.119-3.34,9.85-.529,14,.771-2.371,1.708-4.6,2.479-6.966a7.015,7.015,0,0,0,1.828.009l.939-2.19.262,2.1c2.909-.253,7.224-.81,9.982-1.32l-.268-1.609,1.6,1.337c.845-.195,1.347-.371,1.305-.506,2.051,3.307,4.561,5.419,6.612,8.725C257.872,261.231,258.769,257.354,256.15,253.1Z" transform="translate(-93.777 -224.85)" fill="#2f2e41"/>
      <ellipse id="Ellipse_260" data-name="Ellipse 260" cx="31.985" cy="8.947" rx="31.985" ry="8.947" transform="translate(122.827 102.361)" fill="#2f2e41"/>
      <path id="Trazado_6775" data-name="Trazado 6775" d="M235.481,397.059a25.158,25.158,0,0,0-2.062-7.5,5.688,5.688,0,0,0-3.711-3.261,3.588,3.588,0,0,1-.966-.224c-.492-.237-7.106-4.013-8.157-4.67-.9-.565-2.327-1.61-3.046-1.61-.723-.016-3.494.629-14.311-.216a39.074,39.074,0,0,0-5.271,2.592c-.035-.023-11.227,5.987-11.648,5.972a2.446,2.446,0,0,0-1.993,1.118,7.235,7.235,0,0,0-.895,2.205c2.445,5.444,4.681,10.9,7.126,16.339a1.4,1.4,0,0,1,.177.671,1.636,1.636,0,0,1-.3.671c-1.2,1.926-1.161,4.348-1.03,6.612s.293,4.655-.718,6.683c-.275.557-.633,1.067-.895,1.624a15.389,15.389,0,0,0-.476,6.652L232.147,432C231.182,429.346,235.481,397.059,235.481,397.059Z" transform="translate(-57.993 -326.148)" fill="#1464a5"/>
      <path id="Path_1421" data-name="Path 1421" d="M167,488.775a7.916,7.916,0,0,0-.027,1.953l.643,9.231c.06.87.12,1.738.2,2.606.154,1.684.385,3.355.671,5.024a.9.9,0,0,0,.917.87,32.8,32.8,0,0,0,8.64.412c4.406-.246,15.68-.711,16.369-1.606a2.345,2.345,0,0,0-.611-3.065c-.9-.723-15.775-2.487-15.775-2.487a14.657,14.657,0,0,1,1-3.33,17.3,17.3,0,0,0,1.458-6.021,6.555,6.555,0,0,0-2.472-5.453,8.169,8.169,0,0,0-4.909-1.118c-1.241.036-3.387-.262-4.52.224C167.684,486.407,167.164,487.9,167,488.775Z" transform="translate(-45.446 -406.883)" fill="#fbbebe"/>
      <path id="Path_1423" data-name="Path 1423" d="M273.1,584.994a4.817,4.817,0,0,1,2.364-.074,28.769,28.769,0,0,1,7.56,1.738,7.431,7.431,0,0,1,2.939,2.06,10.208,10.208,0,0,1,1.434,2.908l.859,2.353a11.328,11.328,0,0,1,.749,2.758c.268,2.816-1.657,5.471-4.08,6.934s-5.274,1.984-8.052,2.53-5.567,1.149-8.334,1.789a33.56,33.56,0,0,1-3.921.772c-2.961.335-6.057-.159-8.871.821a33.752,33.752,0,0,1-3.377,1.244,21,21,0,0,1-2.335.356l-5.326.608a21.8,21.8,0,0,1-10.139-.851,1.309,1.309,0,0,1-1.158-1.5q-.342-3-.6-6.005a2.252,2.252,0,0,1,2.378-2.914,55.226,55.226,0,0,1,10.217-.709c1.3-1.3,3.442-1.306,5.145-2.013a15.3,15.3,0,0,0,1.814-.986,23.709,23.709,0,0,1,9.96-3.147,9.273,9.273,0,0,0,2.038-.291c1.317-.409,2.519-1.523,3.872-1.25a3.135,3.135,0,0,1,.671-1.4c.192-.163.429-.273.606-.447a1.834,1.834,0,0,0,.351-1.5,4.391,4.391,0,0,1-.045-1.584,2.189,2.189,0,0,1,.248-.552A3.019,3.019,0,0,1,273.1,584.994Z" transform="translate(-95.529 -482.235)" fill="#2f2e41"/>
      <path id="Path_1430" data-name="Path 1430" d="M168.858,425.372a2.315,2.315,0,0,0-.5.794,37.545,37.545,0,0,0-3.154,12.888,1.288,1.288,0,0,1-.145.624,2.735,2.735,0,0,1-.329.356,1.235,1.235,0,0,0,.148,1.74q.031.026.063.049a2.407,2.407,0,0,1,2.038-.982c3.76-.3,7.433,1.452,11.2,1.32-.266-.919-.649-1.8-.866-2.733-.96-4.131,1.434-8.629-.034-12.608a3.252,3.252,0,0,0-1.554-1.928,4.14,4.14,0,0,0-1-.263c-.953-.172-2.85-.908-3.771-.613-.34.11-.474.429-.756.623A7.114,7.114,0,0,0,168.858,425.372Z" transform="translate(-43.561 -359.895)" fill="#1464a5"/>
      <path id="Path_1421-2" data-name="Path 1421" d="M317.792,486.012c-1.134-.485-3.279-.188-4.52-.224a8.169,8.169,0,0,0-4.909,1.118,6.555,6.555,0,0,0-2.472,5.453,17.3,17.3,0,0,0,1.458,6.021,14.66,14.66,0,0,1,1,3.33s-14.877,1.764-15.775,2.487a2.345,2.345,0,0,0-.611,3.065c.689.895,22.18,1.793,25.009,1.194a.9.9,0,0,0,.917-.87c.286-1.668.516-3.339.671-5.024.082-.868.141-1.736.2-2.606l.643-9.231a7.918,7.918,0,0,0-.027-1.953C319.209,487.9,318.689,486.407,317.792,486.012Z" transform="translate(-140.277 -406.883)" fill="#fbbebe"/>
      <path id="Path_1430-2" data-name="Path 1430" d="M360.921,424.638c-.282-.193-.416-.513-.756-.623-.921-.3-2.818.441-3.771.613a4.141,4.141,0,0,0-1,.263,3.252,3.252,0,0,0-1.555,1.928c-1.467,3.979.926,8.477-.034,12.608-.217.93-.6,1.814-.866,2.733,3.771.132,7.444-1.617,11.2-1.32a2.407,2.407,0,0,1,2.038.982q.032-.024.063-.049a1.235,1.235,0,0,0,.148-1.74,2.726,2.726,0,0,1-.329-.356,1.289,1.289,0,0,1-.145-.624,37.546,37.546,0,0,0-3.154-12.888,2.316,2.316,0,0,0-.5-.794A7.114,7.114,0,0,0,360.921,424.638Z" transform="translate(-186.92 -359.895)" fill="#1464a5"/>
      <path id="Trazado_6776" data-name="Trazado 6776" d="M235.916,515.368l-.654,4.92-19.287-.181.965-7.261Z" transform="translate(-55.626 -390.029)" fill="#ffb6b6"/>
      <path id="Trazado_6777" data-name="Trazado 6777" d="M408.612,674.581,406.5,690.444l-.2-.027a6.229,6.229,0,0,1-5.354-6.995h0l1.288-9.689Z" transform="translate(-223.386 -549.863)" fill="#2f2e41"/>
      <path id="Path_1427" data-name="Path 1427" d="M165.233,580.281c0,.224-.351,0-.383-.239a5.448,5.448,0,0,0-3.355-4.026,10.982,10.982,0,0,0-5.39-.591c-2.74.259-5.816,1.309-6.818,3.87-.237.6-2.458,5.93-2.241,7.128a12.838,12.838,0,0,0,5.422,7.829A32.417,32.417,0,0,0,161.3,598.3a153.26,153.26,0,0,0,25.051,5.983,24.091,24.091,0,0,1,4.089.843c1.181.4,2.286.989,3.44,1.454a34.571,34.571,0,0,0,8.432,1.841,1.729,1.729,0,0,0,1.407-.224c.465-.431.311-1.183.179-1.8a9.7,9.7,0,0,1,1.143-6.88,4.5,4.5,0,0,0,1.011-2.562,2.575,2.575,0,0,0-2.268-2.031,11.359,11.359,0,0,0-3.257.224,1.744,1.744,0,0,1-1.107-.11,2.209,2.209,0,0,1-.434-.385,4.905,4.905,0,0,0-5.713-.8c-.4.224-1.006-.275-1.423-.463l-4.7-2.129A110.955,110.955,0,0,0,170.6,584.81a3.476,3.476,0,0,1-1.275-.53c-.284-.224-.488-.527-.749-.776a9.572,9.572,0,0,0-2.049-1.136C165.843,581.985,165.077,581.048,165.233,580.281Z" transform="translate(-30.318 -475.032)" fill="#2f2e41"/>
      <circle id="Elipse_1116" data-name="Elipse 1116" cx="3.353" cy="3.353" r="3.353" transform="translate(143.739 95.311)" fill="#fbbebe"/>
      <circle id="Elipse_1117" data-name="Elipse 1117" cx="3.353" cy="3.353" r="3.353" transform="translate(151.163 95.311)" fill="#fbbebe"/>
      <path id="Trazado_6778" data-name="Trazado 6778" d="M238.586,498.4H192.524a2.031,2.031,0,0,1-2.028-2.028V468.427a2.031,2.031,0,0,1,2.028-2.028h46.062a2.031,2.031,0,0,1,2.028,2.028v27.944A2.031,2.031,0,0,1,238.586,498.4Z" transform="translate(-63.374 -392.18)" fill="#3f3d56"/>
      <circle id="Ellipse_263" data-name="Ellipse 263" cx="1.342" cy="1.342" r="1.342" transform="translate(150.727 88.876)" fill="#fff"/>
      <path id="Trazado_6779" data-name="Trazado 6779" d="M787.448,327.066H727.6a1.2,1.2,0,0,1-1.2-1.2v-11.28h.479v11.28a.719.719,0,0,0,.718.718h59.845a.719.719,0,0,0,.719-.718V314.51h.479v11.358A1.2,1.2,0,0,1,787.448,327.066Z" transform="translate(-470.944 -276.667)" fill="#3f3d56"/>
      <rect id="Rect치ngulo_6266" data-name="Rect치ngulo 6266" width="140.628" height="0.479" transform="translate(197.57 37.683)" fill="#3f3d56"/>
      <circle id="Ellipse_264" data-name="Ellipse 264" cx="4.12" cy="4.12" r="4.12" transform="translate(193.46 33.765)" fill="#1464a5"/>
      <circle id="Ellipse_266" data-name="Ellipse 266" cx="4.12" cy="4.12" r="4.12" transform="translate(235.323 33.765)" fill="#1464a5"/>
      <circle id="Ellipse_268" data-name="Ellipse 268" cx="4.12" cy="4.12" r="4.12" transform="translate(263.733 45.874)" fill="#3f3d56"/>
      <circle id="Ellipse_269" data-name="Ellipse 269" cx="4.12" cy="4.12" r="4.12" transform="translate(285.331 45.874)" fill="#ccc"/>
      <circle id="Ellipse_270" data-name="Ellipse 270" cx="4.12" cy="4.12" r="4.12" transform="translate(274.865 33.765)" fill="#1464a5"/>
      <circle id="Ellipse_271" data-name="Ellipse 271" cx="4.12" cy="4.12" r="4.12" transform="translate(333.514 33.765)" fill="#1464a5"/>
      <circle id="Ellipse_272" data-name="Ellipse 272" cx="4.12" cy="4.12" r="4.12" transform="translate(313.342 33.765)" fill="#1464a5"/>
      <rect id="Rectangle_207" data-name="Rectangle 207" width="7.641" height="5.266" transform="translate(263.94)" fill="#3f3d56"/>
      <rect id="Rectangle_208" data-name="Rectangle 208" width="7.641" height="5.266" transform="translate(193.79)" fill="#1464a5"/>
      <rect id="Rectangle_209" data-name="Rectangle 209" width="7.641" height="5.266" transform="translate(219.671)" fill="#ccc"/>
      <path id="Trazado_6780" data-name="Trazado 6780" d="M537.29,273.735a.24.24,0,0,1-.24-.239V261.674a1.2,1.2,0,0,1,1.2-1.2h11.657a.24.24,0,1,1,0,.479H538.248a.719.719,0,0,0-.718.718V273.5A.24.24,0,0,1,537.29,273.735Z" transform="translate(-326.936 -235.573)" fill="#3f3d56"/>
      <circle id="Ellipse_265" data-name="Ellipse 265" cx="4.12" cy="4.12" r="4.12" transform="translate(219.397 20.934)" fill="#e6e6e6"/>
      <path id="Trazado_6781" data-name="Trazado 6781" d="M921.53,273.5h-.479V261.674a1.2,1.2,0,0,1,1.2-1.2h11.657v.479H922.248a.719.719,0,0,0-.718.718Z" transform="translate(-618.975 -235.573)" fill="#3f3d56"/>
      <circle id="Ellipse_265-2" data-name="Ellipse 265" cx="4.12" cy="4.12" r="4.12" transform="translate(311.358 20.934)" fill="#e6e6e6"/>
      <g id="Grupo_3801" data-name="Grupo 3801" transform="translate(16.621 64.051)">
        <g id="Grupo_3791" data-name="Grupo 3791" transform="translate(0)">
          <path id="Trazado_6766" data-name="Trazado 6766" d="M108.146,383.925c-.22-.673-1.886-.377-2.046-.978s1.439-1.1,2.666-2.792c.221-.3,1.615-2.225,1.08-3.032-1.013-1.531-8.061,2.282-9.753.142a28.278,28.278,0,0,0-1.63-2.776c-.44-.6-.722-.885-1.06-.876-.479.012-.65.611-1.4,1.7-1.128,1.627-1.535,1.422-2.278,2.755-.552.989-.617,1.621-1.015,1.659-.563.053-.8-1.179-1.483-1.227s-1.4,1.168-1.753,2.119c-.653,1.784-.249,3.148-.159,4.508a11.137,11.137,0,0,1-1.736,6.415l-15.139,24.12c3.251-4.917,12.48-18.325,16.2-23.244,1.073-1.42,2.227-2.845,4-3.114,1.709-.258,3.789.587,6.692.538.339-.006,1.283-.034,1.512-.534.19-.413-.281-.773-.11-1.162.23-.521,1.264-.3,2.674-.644a7.7,7.7,0,0,0,2.25-.994c.175-.1,2.783-1.684,2.49-2.58Z" transform="translate(-60.297 -357.382)" fill="#f2f2f2"/>
          <path id="Trazado_6767" data-name="Trazado 6767" d="M61.075,397.591c-.394-.086-.729.817-1.07.722s-.126-1.024-.6-2.114c-.086-.2-.626-1.434-1.177-1.4-1.044.056-1.206,4.615-2.744,4.828a16.084,16.084,0,0,0-1.833,0c-.42.044-.643.1-.736.267-.132.238.112.5.428,1.177.473,1.023.255,1.164.695,1.913.326.556.618.771.521.977-.137.292-.808.05-1.03.374s.168,1.026.534,1.472a5.355,5.355,0,0,0,2.166,1.379,6.341,6.341,0,0,1,2.647,2.7l7.47,14.39c-1.475-3.014-5.393-11.413-6.734-14.657a3.783,3.783,0,0,1-.373-2.863c.366-.913,1.382-1.69,2.2-3.129.1-.168.353-.639.174-.9-.148-.212-.461-.085-.6-.281-.19-.263.219-.706.455-1.5a4.382,4.382,0,0,0,.161-1.391c0-.116-.024-1.852-.548-1.967h0Z" transform="translate(-52.878 -365.417)" fill="#f2f2f2"/>
          <path id="Trazado_6768" data-name="Trazado 6768" d="M78.093,399.954l.235-2.168.144-.136a4.01,4.01,0,0,0,1.239-1.984c.025-.109.044-.22.064-.332a3.39,3.39,0,0,1,.6-1.575c.24-.321.874-1.045,1.529-.792a.786.786,0,0,1,.379.3l.065-.065a2.384,2.384,0,0,1,.671-.472,2.788,2.788,0,0,0,.553-.356c.112-.09.2-.17.278-.238a1.018,1.018,0,0,1,.926-.35,1.086,1.086,0,0,1,.67.793,5.223,5.223,0,0,1,.262,1.03,1.638,1.638,0,0,0,.039.2c.093.235,1.265.3,1.706.321.991.054,1.848.1,2.055.779.148.485-.16,1.015-.943,1.615a3.54,3.54,0,0,1-.7.412.725.725,0,0,1,.241.52h0c.014.541-.541.957-1.65,1.237a3.606,3.606,0,0,1-1.132.14,4.216,4.216,0,0,1-.6-.079.713.713,0,0,1-.156.294,1.072,1.072,0,0,1-1.187.2,8.745,8.745,0,0,1-1.486-.592,3.83,3.83,0,0,0-.941-.362,2.189,2.189,0,0,0-1.493.636l-1.369,1.027h0Z" transform="translate(-62.443 -364.269)" fill="#f2f2f2"/>
          <path id="Trazado_6769" data-name="Trazado 6769" d="M78.525,379.021l-2.157.323-.168-.1a4.009,4.009,0,0,0-2.233-.7c-.112,0-.224.013-.337.022a3.39,3.39,0,0,1-1.677-.184c-.371-.151-1.233-.581-1.154-1.278a.786.786,0,0,1,.2-.443l-.079-.046a2.384,2.384,0,0,1-.627-.529,2.786,2.786,0,0,0-.485-.445c-.115-.086-.216-.152-.3-.208a1.017,1.017,0,0,1-.573-.806,1.086,1.086,0,0,1,.6-.849,5.222,5.222,0,0,1,.93-.514,1.638,1.638,0,0,0,.183-.088c.2-.15-.034-1.3-.122-1.732-.2-.972-.372-1.813.232-2.185.432-.266,1.022-.1,1.8.5a3.539,3.539,0,0,1,.576.572.725.725,0,0,1,.442-.365h0c.52-.151,1.063.281,1.615,1.283a3.607,3.607,0,0,1,.422,1.059,4.221,4.221,0,0,1,.076.6.713.713,0,0,1,.324.076,1.072,1.072,0,0,1,.49,1.1,8.748,8.748,0,0,1-.2,1.588,3.83,3.83,0,0,0-.112,1c.058.491.466.856.994,1.283l1.341,1.064h0Z" transform="translate(-58.967 -355.684)" fill="#f2f2f2"/>
          <path id="Trazado_6770" data-name="Trazado 6770" d="M84.857,369.625l.235-2.168.144-.136a4.009,4.009,0,0,0,1.239-1.983c.025-.109.044-.22.064-.332a3.39,3.39,0,0,1,.6-1.575c.24-.321.874-1.045,1.529-.792a.786.786,0,0,1,.379.3l.065-.065a2.384,2.384,0,0,1,.671-.472,2.789,2.789,0,0,0,.553-.356c.112-.09.2-.17.278-.238a1.017,1.017,0,0,1,.926-.35,1.086,1.086,0,0,1,.67.793,5.223,5.223,0,0,1,.262,1.03,1.639,1.639,0,0,0,.039.2c.093.235,1.265.3,1.706.322.991.054,1.848.1,2.055.779.148.485-.16,1.015-.943,1.615a3.538,3.538,0,0,1-.7.412.725.725,0,0,1,.241.52h0c.014.541-.541.957-1.65,1.237a3.607,3.607,0,0,1-1.132.14,4.221,4.221,0,0,1-.6-.079.713.713,0,0,1-.156.294,1.072,1.072,0,0,1-1.187.2,8.75,8.75,0,0,1-1.486-.592,3.83,3.83,0,0,0-.941-.362,2.189,2.189,0,0,0-1.493.636l-1.369,1.027h0Z" transform="translate(-65.009 -352.763)" fill="#f2f2f2"/>
          <path id="Trazado_6771" data-name="Trazado 6771" d="M73.021,410.262l-.381-.377.007-.536-.007.536-.53-.056c0-.05,0-.166,0-.348a75.777,75.777,0,0,1,.339-8.7,87.287,87.287,0,0,1,1.466-9.823c.679-3.268,1.383-5.7,1.949-7.655.427-1.474.858-2.873,1.278-4.235a82.492,82.492,0,0,0,2.839-11,10.518,10.518,0,0,0-.173-4.848,9.967,9.967,0,0,0-1.845-3.488l.834-.674a11.056,11.056,0,0,1,2.04,3.864,11.519,11.519,0,0,1,.2,5.324,83.3,83.3,0,0,1-2.872,11.135c-.418,1.357-.848,2.749-1.273,4.218-.561,1.937-1.259,4.347-1.928,7.574a86.219,86.219,0,0,0-1.449,9.7,74.574,74.574,0,0,0-.334,8.577c.011.524.013.634-.156.8h0Z" transform="translate(-60.165 -351.863)" fill="#f2f2f2"/>
          <path id="Trazado_6772" data-name="Trazado 6772" d="M76.218,356.571c-.043-.01-.086-.02-.129-.033a3.426,3.426,0,0,1-2.1-2.131,7.492,7.492,0,0,1-.41-2.278,13.383,13.383,0,0,1,0-2.267c.063-.778.146-1.091.358-1.336a1.635,1.635,0,0,1,.887-.509.606.606,0,0,1,.11-.3c.275-.4.737-.233.987-.149a2.63,2.63,0,0,0,.46.133,1.346,1.346,0,0,0,.694-.073,2.98,2.98,0,0,1,.951-.149,3.2,3.2,0,0,1,1.616.5,4.7,4.7,0,0,1,1.827,2.795,8.181,8.181,0,0,1,.423,2.159,2.4,2.4,0,0,1-.174,1.331c-.24.471-.608.689-1.52,1.148a14.36,14.36,0,0,1-1.823.845,4.026,4.026,0,0,1-2.159.316Z" transform="translate(-60.713 -347.462)" fill="#f2f2f2"/>
        </g>
      </g>
    </g>
  </g>
</svg>
